<?xml version="1.0" encoding="utf-8"?>
<!-- Generator: Adobe Illustrator 13.0.0, SVG Export Plug-In . SVG Version: 6.00 Build 14948)  -->
<!DOCTYPE svg PUBLIC "-//W3C//DTD SVG 1.1//EN" "http://www.w3.org/Graphics/SVG/1.1/DTD/svg11.dtd">
<svg version="1.1" id="Layer_1" xmlns="http://www.w3.org/2000/svg" xmlns:xlink="http://www.w3.org/1999/xlink" x="0px" y="0px"
	 width="1058.533px" height="464.14px" viewBox="0 0 1058.533 464.14" enable-background="new 0 0 1058.533 464.14"
	 xml:space="preserve">
<g enable-background="new    ">
	<path d="M63.969,188.045c17.66-24.566,36.718-36.852,57.171-36.852c18.725,0,35.059,8.002,49.003,24.004
		c13.944,16.004,20.916,37.882,20.916,65.636c0,32.404-10.757,58.5-32.271,78.287c-18.46,17-39.043,25.498-61.752,25.498
		c-10.626,0-21.414-1.928-32.37-5.777s-22.146-9.627-33.565-17.33V132.468c0-20.717-0.498-33.466-1.494-38.246
		c-0.996-4.781-2.559-8.033-4.681-9.761c-2.126-1.725-4.781-2.59-7.968-2.59c-3.719,0-8.366,1.064-13.944,3.188l-2.789-6.973
		l54.78-22.311h8.964L63.969,188.045L63.969,188.045z M63.969,200.794v109.163c6.773,6.643,13.776,11.653,21.016,15.039
		c7.237,3.387,14.641,5.08,22.211,5.08c12.083,0,23.338-6.64,33.765-19.92c10.424-13.277,15.637-32.602,15.637-57.968
		c0-23.372-5.213-41.335-15.637-53.884c-10.427-12.55-22.279-18.825-35.558-18.825c-7.041,0-14.078,1.793-21.115,5.379
		C78.974,187.517,72.201,192.827,63.969,200.794z"/>
	<path d="M256.379,225.296c-0.134,27.092,6.44,48.34,19.721,63.745c13.278,15.406,28.884,23.106,46.812,23.106
		c11.952,0,22.342-3.286,31.175-9.86c8.83-6.572,16.235-17.828,22.211-33.765l6.175,3.983
		c-2.789,18.195-10.891,34.762-24.303,49.701c-13.415,14.939-30.213,22.41-50.398,22.41c-21.912,0-40.67-8.531-56.273-25.598
		c-15.606-17.062-23.406-40.006-23.406-68.824c0-31.206,8-55.543,24.004-73.008c16.001-17.461,36.086-26.194,60.258-26.194
		c20.449,0,37.252,6.741,50.398,20.219c13.147,13.48,19.721,31.508,19.721,54.083L256.379,225.296L256.379,225.296z
		 M256.379,213.743h84.461c-0.666-11.685-2.061-19.92-4.183-24.701c-3.321-7.436-8.268-13.277-14.84-17.529
		c-6.574-4.249-13.446-6.374-20.618-6.374c-11.024,0-20.885,4.282-29.581,12.848C262.919,186.552,257.839,198.473,256.379,213.743z"
		/>
	<path d="M477.476,151.194v146.612c0,11.423,0.828,19.023,2.49,22.809c1.659,3.784,4.115,6.607,7.371,8.467
		c3.252,1.86,9.194,2.789,17.829,2.789v7.17H416.52v-7.17c8.896,0,14.872-0.863,17.929-2.59c3.054-1.726,5.478-4.582,7.271-8.566
		c1.793-3.983,2.689-11.618,2.689-22.907v-70.318c0-19.786-0.598-32.601-1.792-38.446c-0.932-4.248-2.392-7.202-4.382-8.864
		c-1.992-1.659-4.717-2.49-8.167-2.49c-3.721,0-8.236,0.996-13.546,2.988l-2.789-7.171l54.979-22.311L477.476,151.194
		L477.476,151.194z M460.942,55.776c5.577,0,10.324,1.961,14.242,5.877c3.916,3.918,5.876,8.665,5.876,14.242
		c0,5.578-1.961,10.359-5.876,14.343c-3.918,3.984-8.666,5.977-14.242,5.977c-5.577,0-10.358-1.992-14.343-5.977
		c-3.983-3.983-5.976-8.765-5.976-14.343c0-5.577,1.958-10.324,5.876-14.242C450.416,57.737,455.23,55.776,460.942,55.776z"/>
	<path d="M588.812,189.838c21.381-25.762,41.764-38.645,61.155-38.645c9.959,0,18.525,2.49,25.695,7.47
		c7.172,4.98,12.881,13.182,17.133,24.602c2.918,7.968,4.381,20.188,4.381,36.653v77.888c0,11.554,0.929,19.391,2.789,23.506
		c1.461,3.32,3.816,5.91,7.072,7.77c3.252,1.86,9.264,2.789,18.027,2.789v7.17h-90.238v-7.17h3.785
		c8.498,0,14.44-1.295,17.828-3.886c3.387-2.59,5.743-6.405,7.071-11.454c0.529-1.992,0.797-8.232,0.797-18.725v-74.701
		c0-16.599-2.159-28.65-6.475-36.154c-4.316-7.502-11.588-11.255-21.812-11.255c-15.806,0-31.541,8.634-47.212,25.896v96.215
		c0,12.351,0.729,19.987,2.191,22.907c1.859,3.854,4.414,6.674,7.67,8.467c3.252,1.793,9.859,2.689,19.82,2.689v7.17h-90.238v-7.17
		h3.984c9.293,0,15.567-2.356,18.824-7.072c3.252-4.713,4.881-13.711,4.881-26.991v-67.729c0-21.912-0.498-35.259-1.494-40.04
		c-0.996-4.78-2.525-8.033-4.582-9.761c-2.062-1.725-4.814-2.59-8.269-2.59c-3.719,0-8.166,0.996-13.345,2.988l-2.988-7.171
		l54.98-22.311h8.564v38.645H588.812z"/>
	<path d="M796.163,272.507c-11.154-5.444-19.721-13.049-25.697-22.809c-5.976-9.762-8.963-20.55-8.963-32.371
		c0-18.059,6.803-33.597,20.418-46.613c13.611-13.014,31.041-19.521,52.289-19.521c17.396,0,32.471,4.251,45.219,12.749h38.646
		c5.707,0,9.028,0.168,9.959,0.498c0.928,0.333,1.594,0.896,1.992,1.692c0.797,1.195,1.194,3.321,1.194,6.375
		c0,3.455-0.334,5.845-0.996,7.171c-0.397,0.666-1.096,1.195-2.092,1.594s-4.352,0.598-10.059,0.598H894.37
		c7.436,9.562,11.153,21.781,11.153,36.653c0,17-6.508,31.542-19.521,43.625c-13.016,12.086-30.479,18.127-52.391,18.127
		c-9.031,0-18.261-1.325-27.688-3.983c-5.846,5.049-9.797,9.463-11.854,13.246c-2.062,3.785-3.088,7.008-3.088,9.662
		c0,2.26,1.096,4.45,3.286,6.573c2.191,2.126,6.476,3.653,12.851,4.582c3.715,0.532,13.012,0.995,27.887,1.394
		c27.357,0.666,45.086,1.594,53.188,2.789c12.35,1.729,22.211,6.311,29.582,13.746c7.368,7.438,11.055,16.598,11.055,27.489
		c0,15.005-7.041,29.083-21.115,42.229c-20.717,19.389-47.742,29.084-81.073,29.084c-25.634,0-47.279-5.776-64.939-17.33
		c-9.961-6.643-14.941-13.547-14.941-20.717c0-3.188,0.729-6.375,2.191-9.562c2.256-4.914,6.904-11.753,13.943-20.518
		c0.928-1.195,7.7-8.367,20.319-21.515c-6.908-4.114-11.787-7.8-14.643-11.056c-2.857-3.254-4.283-6.938-4.283-11.057
		c0-4.646,1.893-10.09,5.678-16.334C773.753,292.759,782.483,283.93,796.163,272.507z M794.171,339.041
		c-6.244,6.772-10.955,13.08-14.143,18.924c-3.188,5.844-4.781,11.222-4.781,16.137c0,6.374,3.85,11.951,11.553,16.732
		c13.279,8.232,32.472,12.351,57.57,12.351c23.903,0,41.533-4.218,52.889-12.649c11.354-8.435,17.031-17.43,17.031-26.99
		c0-6.908-3.387-11.821-10.16-14.742c-6.906-2.922-20.586-4.649-41.035-5.178C833.214,342.826,810.237,341.296,794.171,339.041z
		 M830.823,160.755c-9.828,0-18.062,3.919-24.699,11.753c-6.643,7.837-9.961,19.854-9.961,36.056
		c0,20.984,4.514,37.25,13.545,48.805c6.904,8.764,15.67,13.146,26.295,13.146c10.092,0,18.394-3.785,24.9-11.354
		c6.506-7.57,9.762-19.453,9.762-35.658c0-21.115-4.582-37.648-13.746-49.601C850.146,165.138,841.446,160.755,830.823,160.755z"/>
	<path d="M997.339,300.395c6.24,0,11.484,2.16,15.736,6.476c4.25,4.316,6.375,9.529,6.375,15.637c0,6.109-2.16,11.324-6.476,15.638
		s-9.528,6.476-15.637,6.476c-6.109,0-11.324-2.16-15.637-6.476c-4.318-4.313-6.475-9.526-6.475-15.638
		c0-6.24,2.155-11.484,6.475-15.736C986.015,302.521,991.229,300.395,997.339,300.395z"/>
</g>
</svg>
